<svg width="192" height="52" viewBox="0 0 192 52" fill="none" xmlns="http://www.w3.org/2000/svg">
<rect width="103.968" height="51.1088" rx="25.5544" fill="url(#paint0_linear_2_53)"/>
<path d="M22.1588 36.2313C19.8484 36.2313 18.0514 35.6478 16.7679 34.481C15.4843 33.3141 14.8425 31.7038 14.8425 29.6501C14.8425 28.9733 14.9359 28.1915 15.1226 27.3047C15.706 24.5743 16.9312 22.4039 18.7982 20.7936C20.6885 19.1833 23.0806 18.3782 25.9744 18.3782C26.9546 18.3782 27.8531 18.5299 28.6699 18.8333C29.4867 19.1133 30.1402 19.4867 30.6302 19.9535L32.8006 9.83672H40.677L35.181 35.7062H27.5847L27.8648 34.3059C27.118 34.8894 26.2312 35.3561 25.2043 35.7062C24.1775 36.0562 23.1623 36.2313 22.1588 36.2313ZM25.6244 30.1402C26.2312 30.1402 26.8146 30.0002 27.3747 29.7201C27.9581 29.4401 28.4365 29.055 28.8099 28.5649L29.335 26.0445C29.1717 25.5544 28.8683 25.1694 28.4249 24.8893C27.9815 24.6093 27.4564 24.4692 26.8496 24.4692C25.9161 24.4692 25.1343 24.7143 24.5042 25.2044C23.8741 25.6944 23.454 26.4062 23.244 27.3397C23.174 27.6898 23.139 28.0165 23.139 28.3199C23.139 28.95 23.3257 29.4167 23.6991 29.7201C24.0958 30.0002 24.7376 30.1402 25.6244 30.1402Z" fill="white"/>
<path d="M41.196 18.9033H48.4423L48.1272 20.3035C49.7142 19.02 51.5228 18.3782 53.5532 18.3782C54.7434 18.3782 55.6652 18.5415 56.3186 18.8683C56.9721 19.1717 57.4972 19.6384 57.8939 20.2685C58.7107 19.6851 59.6209 19.23 60.6244 18.9033C61.6512 18.5532 62.6664 18.3782 63.6699 18.3782C65.5136 18.3782 66.8321 18.7633 67.6256 19.5334C68.4424 20.2802 68.8508 21.3654 68.8508 22.7889C68.8508 23.5591 68.7458 24.3992 68.5357 25.3094L66.3304 35.7062H58.8041L60.7644 26.4646C60.8344 26.1145 60.8694 25.8228 60.8694 25.5894C60.8694 25.216 60.7761 24.936 60.5894 24.7493C60.4027 24.5626 60.0876 24.4692 59.6442 24.4692C59.1308 24.4692 58.6641 24.5859 58.244 24.8193L55.9336 35.7062H48.4073L50.4376 26.0795C50.4843 25.7528 50.5076 25.5428 50.5076 25.4494C50.5076 24.796 50.1459 24.4692 49.4225 24.4692C48.629 24.4692 47.9055 24.9126 47.2521 25.7995L45.1517 35.7062H37.6254L41.196 18.9033Z" fill="white"/>
<path d="M72.1682 18.9033H79.7645L79.4494 20.3035C80.1962 19.7201 81.083 19.2533 82.1099 18.9033C83.1367 18.5532 84.1519 18.3782 85.1554 18.3782C87.3491 18.3782 89.1111 18.9966 90.4413 20.2335C91.7715 21.4704 92.4367 23.1273 92.4367 25.2044C92.4367 25.8578 92.3666 26.5579 92.2266 27.3047C91.8532 29.055 91.1531 30.607 90.1263 31.9605C89.0994 33.3141 87.8275 34.3643 86.3106 35.1111C84.7937 35.8579 83.1367 36.2313 81.3397 36.2313C80.3596 36.2313 79.4611 36.0796 78.6443 35.7762C77.8275 35.4961 77.174 35.1227 76.6839 34.656L74.8286 43.3725H66.9873L72.1682 18.9033ZM80.4646 30.1402C81.3981 30.1402 82.1799 29.8952 82.81 29.4051C83.4401 28.915 83.8602 28.2032 84.0702 27.2697C84.1169 27.083 84.1402 26.8263 84.1402 26.4996C84.1402 25.8228 83.9302 25.321 83.5101 24.9943C83.09 24.6443 82.4833 24.4692 81.6898 24.4692C81.083 24.4692 80.4879 24.6093 79.9045 24.8893C79.3444 25.1694 78.8777 25.5544 78.5043 26.0445L77.9792 28.5649C78.1425 29.055 78.4459 29.4401 78.8893 29.7201C79.3327 30.0002 79.8578 30.1402 80.4646 30.1402Z" fill="white"/>
<path d="M112.824 24.0842H110.654L111.774 18.9033H113.91L114.19 17.6081C114.75 14.9709 115.893 12.9873 117.62 11.657C119.37 10.3268 121.751 9.6617 124.761 9.6617C126.278 9.6617 127.492 9.90674 128.402 10.3968L127.072 16.6629C126.395 16.2662 125.648 16.0678 124.831 16.0678C123.828 16.0678 123.128 16.2428 122.731 16.5929C122.358 16.9196 122.089 17.4914 121.926 18.3082L121.786 18.9033H125.567L124.446 24.0842H120.701L118.25 35.7062H110.374L112.824 24.0842Z" fill="white"/>
<path d="M133.497 36.2313C130.673 36.2313 128.421 35.6245 126.741 34.411C125.061 33.1974 124.221 31.4938 124.221 29.3001C124.221 28.67 124.291 28.0282 124.431 27.3747C125.038 24.5743 126.344 22.3806 128.351 20.7936C130.382 19.1833 133.089 18.3782 136.473 18.3782C139.133 18.3782 141.164 18.9966 142.564 20.2335C143.964 21.4471 144.664 23.069 144.664 25.0994C144.664 25.6594 144.583 26.3479 144.419 27.1647L143.964 29.4401H131.502C131.712 30.0469 132.12 30.5019 132.727 30.8053C133.334 31.1087 134.314 31.2604 135.668 31.2604C136.765 31.2604 137.931 31.1787 139.168 31.0154C140.428 30.8287 141.514 30.572 142.424 30.2452L141.409 34.971C140.405 35.3444 139.192 35.6478 137.768 35.8812C136.368 36.1146 134.944 36.2313 133.497 36.2313ZM137.453 25.1344C137.43 24.5976 137.243 24.1775 136.893 23.8741C136.543 23.5474 135.994 23.3841 135.248 23.3841C133.871 23.3841 132.926 23.9675 132.412 25.1344H137.453Z" fill="white"/>
<path d="M154.487 36.2313C151.663 36.2313 149.411 35.6245 147.731 34.411C146.051 33.1974 145.211 31.4938 145.211 29.3001C145.211 28.67 145.281 28.0282 145.421 27.3747C146.027 24.5743 147.334 22.3806 149.341 20.7936C151.372 19.1833 154.079 18.3782 157.463 18.3782C160.123 18.3782 162.154 18.9966 163.554 20.2335C164.954 21.4471 165.654 23.069 165.654 25.0994C165.654 25.6594 165.572 26.3479 165.409 27.1647L164.954 29.4401H152.492C152.702 30.0469 153.11 30.5019 153.717 30.8053C154.324 31.1087 155.304 31.2604 156.658 31.2604C157.754 31.2604 158.921 31.1787 160.158 31.0154C161.418 30.8287 162.504 30.572 163.414 30.2452L162.399 34.971C161.395 35.3444 160.182 35.6478 158.758 35.8812C157.358 36.1146 155.934 36.2313 154.487 36.2313ZM158.443 25.1344C158.42 24.5976 158.233 24.1775 157.883 23.8741C157.533 23.5474 156.984 23.3841 156.238 23.3841C154.861 23.3841 153.915 23.9675 153.402 25.1344H158.443Z" fill="white"/>
<path d="M173.482 36.2313C171.171 36.2313 169.374 35.6478 168.091 34.481C166.807 33.3141 166.166 31.7038 166.166 29.6501C166.166 28.9734 166.259 28.1915 166.446 27.3047C167.029 24.5743 168.254 22.4039 170.121 20.7936C172.012 19.1833 174.404 18.3782 177.297 18.3782C178.278 18.3782 179.176 18.5299 179.993 18.8333C180.81 19.1133 181.463 19.4867 181.953 19.9535L184.124 9.83673H192L186.504 35.7062H178.908L179.188 34.3059C178.441 34.8894 177.554 35.3561 176.527 35.7062C175.5 36.0562 174.485 36.2313 173.482 36.2313ZM176.947 30.1402C177.554 30.1402 178.138 30.0002 178.698 29.7201C179.281 29.4401 179.76 29.055 180.133 28.5649L180.658 26.0445C180.495 25.5544 180.191 25.1694 179.748 24.8893C179.304 24.6093 178.779 24.4692 178.173 24.4692C177.239 24.4692 176.457 24.7143 175.827 25.2044C175.197 25.6945 174.777 26.4062 174.567 27.3397C174.497 27.6898 174.462 28.0165 174.462 28.3199C174.462 28.95 174.649 29.4168 175.022 29.7201C175.419 30.0002 176.061 30.1402 176.947 30.1402Z" fill="white"/>
<defs>
<linearGradient id="paint0_linear_2_53" x1="-1.40024" y1="51.1088" x2="103.968" y2="51.1088" gradientUnits="userSpaceOnUse">
<stop offset="0.0572917" stop-color="#E45757"/>
<stop offset="0.229167" stop-color="#FF8878"/>
<stop offset="0.479167" stop-color="#E45757"/>
<stop offset="0.953125" stop-color="#DE5D5D"/>
</linearGradient>
</defs>
</svg>
